<svg xmlns="http://www.w3.org/2000/svg" viewBox="0 0 1080 1920">
  <rect width="1080" height="1920" fill="#F9FAFB"/>

  <!-- Status Bar -->
  <rect width="1080" height="88" fill="#FFFFFF"/>
  <text x="50" y="60" font-family="Arial" font-size="28" fill="#191F28">9:41</text>
  <text x="930" y="60" font-family="Arial" font-size="24" fill="#191F28">100%</text>

  <!-- AppBar -->
  <rect y="88" width="1080" height="112" fill="#FFFFFF"/>
  <text x="50" y="160" font-family="Arial" font-size="40" font-weight="bold" fill="#191F28">청약</text>
  <text x="920" y="160" font-family="Arial" font-size="30" fill="#8B95A1">🧮</text>
  <text x="980" y="160" font-family="Arial" font-size="36" fill="#8B95A1">🔔</text>

  <!-- My Score Card -->
  <g transform="translate(40, 220)">
    <rect x="0" y="0" width="1000" height="120" rx="16" fill="#3182F6"/>
    <text x="30" y="40" font-family="Arial" font-size="24" fill="#FFFFFF" opacity="0.8">내 가점</text>
    <text x="30" y="85" font-family="Arial" font-size="48" font-weight="bold" fill="#FFFFFF">56점</text>
    <text x="170" y="85" font-family="Arial" font-size="24" fill="#FFFFFF" opacity="0.7">/ 84점</text>
    <text x="820" y="70" font-family="Arial" font-size="22" fill="#FFFFFF" opacity="0.8">가점 수정 ›</text>
  </g>

  <!-- Filter Bar -->
  <g transform="translate(40, 370)">
    <rect x="0" y="0" width="160" height="44" rx="22" fill="#3182F6"/>
    <text x="80" y="30" font-family="Arial" font-size="24" fill="#FFFFFF" text-anchor="middle" font-weight="bold">진행중</text>
    <rect x="176" y="0" width="160" height="44" rx="22" fill="#F2F4F6"/>
    <text x="256" y="30" font-family="Arial" font-size="24" fill="#8B95A1" text-anchor="middle">예정</text>
    <rect x="352" y="0" width="160" height="44" rx="22" fill="#F2F4F6"/>
    <text x="432" y="30" font-family="Arial" font-size="24" fill="#8B95A1" text-anchor="middle">마감</text>

    <rect x="700" y="0" width="140" height="44" rx="12" fill="#FFFFFF" stroke="#E5E8EB" stroke-width="1"/>
    <text x="770" y="30" font-family="Arial" font-size="22" fill="#4E5968" text-anchor="middle">지역 ▾</text>
    <rect x="856" y="0" width="140" height="44" rx="12" fill="#FFFFFF" stroke="#E5E8EB" stroke-width="1"/>
    <text x="926" y="30" font-family="Arial" font-size="22" fill="#4E5968" text-anchor="middle">유형 ▾</text>
  </g>

  <!-- Subscription List -->
  <g transform="translate(40, 440)">
    <!-- Item 1 - Urgent -->
    <rect x="0" y="0" width="1000" height="200" rx="16" fill="#FFFFFF" stroke="#F2F4F6" stroke-width="2"/>
    <rect x="24" y="20" width="80" height="32" rx="16" fill="#FF454520"/>
    <text x="64" y="42" font-family="Arial" font-size="20" fill="#FF4545" text-anchor="middle" font-weight="bold">모집중</text>
    <text x="120" y="42" font-family="Arial" font-size="22" fill="#8B95A1">D-3</text>
    <text x="24" y="80" font-family="Arial" font-size="30" font-weight="bold" fill="#191F28">힐스테이트 잠실</text>
    <text x="24" y="112" font-family="Arial" font-size="24" fill="#8B95A1">서울 송파구 · 아파트 · 총 820세대</text>
    <text x="24" y="152" font-family="Arial" font-size="22" fill="#4E5968">모집기간  2026.03.21 ~ 2026.03.31</text>
    <text x="24" y="180" font-family="Arial" font-size="22" fill="#4E5968">당첨발표  2026.04.10</text>

    <!-- Item 2 -->
    <rect x="0" y="220" width="1000" height="200" rx="16" fill="#FFFFFF" stroke="#F2F4F6" stroke-width="2"/>
    <rect x="24" y="240" width="80" height="32" rx="16" fill="#3182F620"/>
    <text x="64" y="262" font-family="Arial" font-size="20" fill="#3182F6" text-anchor="middle" font-weight="bold">모집중</text>
    <text x="120" y="262" font-family="Arial" font-size="22" fill="#8B95A1">D-12</text>
    <text x="24" y="300" font-family="Arial" font-size="30" font-weight="bold" fill="#191F28">DMC 파크뷰자이</text>
    <text x="24" y="332" font-family="Arial" font-size="24" fill="#8B95A1">서울 마포구 · 아파트 · 총 1,250세대</text>
    <text x="24" y="372" font-family="Arial" font-size="22" fill="#4E5968">모집기간  2026.03.25 ~ 2026.04.07</text>
    <text x="24" y="400" font-family="Arial" font-size="22" fill="#4E5968">당첨발표  2026.04.18</text>

    <!-- Item 3 -->
    <rect x="0" y="440" width="1000" height="200" rx="16" fill="#FFFFFF" stroke="#F2F4F6" stroke-width="2"/>
    <rect x="24" y="460" width="100" height="32" rx="16" fill="#F59E0B20"/>
    <text x="74" y="482" font-family="Arial" font-size="20" fill="#F59E0B" text-anchor="middle" font-weight="bold">접수예정</text>
    <text x="140" y="482" font-family="Arial" font-size="22" fill="#8B95A1">D-21</text>
    <text x="24" y="520" font-family="Arial" font-size="30" font-weight="bold" fill="#191F28">래미안 원펜타스</text>
    <text x="24" y="552" font-family="Arial" font-size="24" fill="#8B95A1">서울 서초구 · 아파트 · 총 641세대</text>
    <text x="24" y="592" font-family="Arial" font-size="22" fill="#4E5968">모집기간  2026.04.05 ~ 2026.04.15</text>
    <text x="24" y="620" font-family="Arial" font-size="22" fill="#4E5968">당첨발표  2026.04.25</text>

    <!-- Item 4 -->
    <rect x="0" y="660" width="1000" height="200" rx="16" fill="#FFFFFF" stroke="#F2F4F6" stroke-width="2"/>
    <rect x="24" y="680" width="100" height="32" rx="16" fill="#F59E0B20"/>
    <text x="74" y="702" font-family="Arial" font-size="20" fill="#F59E0B" text-anchor="middle" font-weight="bold">접수예정</text>
    <text x="140" y="702" font-family="Arial" font-size="22" fill="#8B95A1">D-30</text>
    <text x="24" y="740" font-family="Arial" font-size="30" font-weight="bold" fill="#191F28">e편한세상 시티 과천</text>
    <text x="24" y="772" font-family="Arial" font-size="24" fill="#8B95A1">경기 과천시 · 아파트 · 총 1,800세대</text>
    <text x="24" y="812" font-family="Arial" font-size="22" fill="#4E5968">모집기간  2026.04.15 ~ 2026.04.25</text>
    <text x="24" y="840" font-family="Arial" font-size="22" fill="#4E5968">당첨발표  2026.05.08</text>
  </g>

  <!-- Bottom Nav Bar -->
  <rect y="1770" width="1080" height="150" fill="#FFFFFF"/>
  <line x1="0" y1="1770" x2="1080" y2="1770" stroke="#F2F4F6" stroke-width="2"/>
  <text x="108" y="1820" font-family="Arial" font-size="36" text-anchor="middle" fill="#8B95A1">🏠</text>
  <text x="108" y="1858" font-family="Arial" font-size="20" text-anchor="middle" fill="#8B95A1">홈</text>
  <text x="324" y="1820" font-family="Arial" font-size="36" text-anchor="middle" fill="#8B95A1">📊</text>
  <text x="324" y="1858" font-family="Arial" font-size="20" text-anchor="middle" fill="#8B95A1">시세</text>
  <text x="540" y="1820" font-family="Arial" font-size="36" text-anchor="middle" fill="#8B95A1">📄</text>
  <text x="540" y="1858" font-family="Arial" font-size="20" text-anchor="middle" fill="#8B95A1">내 계약</text>
  <text x="756" y="1820" font-family="Arial" font-size="36" text-anchor="middle" fill="#3182F6">🏢</text>
  <text x="756" y="1858" font-family="Arial" font-size="20" text-anchor="middle" fill="#3182F6" font-weight="bold">청약</text>
  <text x="972" y="1820" font-family="Arial" font-size="36" text-anchor="middle" fill="#8B95A1">⚙️</text>
  <text x="972" y="1858" font-family="Arial" font-size="20" text-anchor="middle" fill="#8B95A1">설정</text>
</svg>
